<?xml version="1.0" encoding="UTF-8"?>
<svg id="Layer_2" data-name="Layer 2" xmlns="http://www.w3.org/2000/svg" viewBox="0 0 66.29 66.29">
  <defs>
    <style>
      .cls-1 {
        fill: #ff8500;
      }
    </style>
  </defs>
  <g id="Layer_1-2" data-name="Layer 1">
    <path class="cls-1" d="m4.67,28.47c-2.57,2.57-2.57,6.78,0,9.35l23.8,23.8c2.57,2.57,6.78,2.57,9.35,0l23.8-23.8c2.57-2.57,2.57-6.78,0-9.35L37.82,4.67c-2.57-2.57-6.78-2.57-9.35,0L4.67,28.47Zm35.18,0c2.57,2.57,2.57,6.78,0,9.35l-2.02,2.02c-2.57,2.57-6.78,2.57-9.35,0l-2.04-2.04c-2.57-2.57-2.57-6.78,0-9.35l2.02-2.02c2.57-2.57,6.78-2.57,9.35,0l2.04,2.04Z"/>
  </g>
</svg>