<?xml version="1.0" encoding="UTF-8"?>
<svg id="Layer_2" data-name="Layer 2" xmlns="http://www.w3.org/2000/svg" viewBox="0 0 60.8 60.8">
  <defs>
    <style>
      .cls-1 {
        fill: #1a4;
      }
    </style>
  </defs>
  <g id="Layer_1-2" data-name="Layer 1">
    <path class="cls-1" d="m60.8,28.42c0-3.63-2.97-6.61-6.61-6.61h-8.59c-3.63,0-6.61-2.97-6.61-6.61V6.61c0-3.63-2.97-6.61-6.61-6.61h-3.96c-3.63,0-6.61,2.97-6.61,6.61v8.59c0,3.63-2.97,6.61-6.61,6.61H6.61c-3.63,0-6.61,2.97-6.61,6.61v3.96c0,3.63,2.97,6.61,6.61,6.61h8.59c3.63,0,6.61,2.97,6.61,6.61v8.59c0,3.63,2.97,6.61,6.61,6.61h3.96c3.63,0,6.61-2.97,6.61-6.61v-8.59c0-3.63,2.97-6.61,6.61-6.61h8.59c3.63,0,6.61-2.97,6.61-6.61v-3.96Z"/>
  </g>
</svg>