<?xml version="1.0" encoding="UTF-8"?>
<svg id="Layer_2" data-name="Layer 2" xmlns="http://www.w3.org/2000/svg" viewBox="0 0 53.42 53.42">
  <defs>
    <style>
      .cls-1 {
        fill: #c61c2c;
      }
    </style>
  </defs>
  <g id="Layer_1-2" data-name="Layer 1">
    <path class="cls-1" d="m51.34,48.33c2.77-2.77,2.77-7.29,0-10.06l-6.54-6.54c-2.77-2.77-2.77-7.29,0-10.06l6.54-6.54c2.77-2.77,2.77-7.29,0-10.06l-3.02-3.02c-2.77-2.77-7.29-2.77-10.06,0l-6.54,6.54c-2.77,2.77-7.29,2.77-10.06,0l-6.54-6.54c-2.77-2.77-7.29-2.77-10.06,0l-3.02,3.02c-2.77,2.77-2.77,7.29,0,10.06l6.54,6.54c2.77,2.77,2.77,7.29,0,10.06l-6.54,6.54c-2.77,2.77-2.77,7.29,0,10.06l3.02,3.02c2.77,2.77,7.29,2.77,10.06,0l6.54-6.54c2.77-2.77,7.29-2.77,10.06,0l6.54,6.54c2.77,2.77,7.29,2.77,10.06,0l3.02-3.02Z"/>
  </g>
</svg>