<?xml version="1.0" encoding="UTF-8"?>
<svg id="Layer_2" data-name="Layer 2" xmlns="http://www.w3.org/2000/svg" viewBox="0 0 60.8 58.19">
  <defs>
    <style>
      .cls-1 {
        fill: #5f20c4;
      }
    </style>
  </defs>
  <g id="Layer_1-2" data-name="Layer 1">
    <path class="cls-1" d="m42.87.04c-10.52-.64-19.57,7.37-20.21,17.89-.05.83-.03,1.65.03,2.46-.8-.15-1.61-.27-2.44-.32C9.73,19.42.68,27.43.04,37.95c-.64,10.52,7.37,19.57,17.89,20.21,10.52.64,19.57-7.37,20.21-17.89.05-.83.03-1.65-.03-2.46.8.15,1.61.27,2.44.33,10.52.64,19.57-7.37,20.21-17.89C61.4,9.73,53.39.68,42.87.04Zm-17.1,39.48c-.23,3.7-3.41,6.51-7.1,6.28-3.7-.23-6.51-3.41-6.28-7.1.23-3.7,3.4-6.51,7.1-6.28,3.7.23,6.51,3.4,6.28,7.1Zm22.63-20.02c-.23,3.7-3.41,6.51-7.1,6.28-3.7-.23-6.51-3.41-6.28-7.1.23-3.7,3.4-6.51,7.1-6.28,3.7.23,6.51,3.4,6.28,7.1Z"/>
  </g>
</svg>